<svg width="1920" height="1080" viewBox="0 0 1920 1080" fill="none" xmlns="http://www.w3.org/2000/svg">
<path d="M107.484 155.404H297.553C346.754 155.404 383.647 169.037 408.241 196.304C432.827 223.57 445.388 263.941 445.924 317.409L447.546 639.824C448.075 707.736 436.311 758.806 412.254 793.033C388.189 827.247 348.355 844.351 292.743 844.351H107.484V155.404ZM270.286 722.448C295.423 722.448 307.998 710.155 307.998 685.562V330.245C307.998 314.742 306.788 303.116 304.369 295.365C301.964 287.613 297.56 282.405 291.149 279.725C284.73 277.052 274.835 275.712 261.463 275.712H246.236V722.448H270.286Z" fill="#62A4FF"/>
<path d="M502.914 155.404H714.642C748.32 155.404 774.384 163.031 792.841 178.272C811.291 193.5 823.722 214.884 830.14 242.426C836.551 269.967 839.76 305.122 839.76 347.891C839.76 386.922 834.675 417.404 824.505 439.338C814.349 461.259 796.716 476.493 771.594 485.048C792.442 489.322 807.546 499.747 816.891 516.328C826.25 532.895 830.937 555.352 830.937 583.697L829.343 844.351H694.604V574.874C694.604 555.62 690.852 543.319 683.362 537.987C675.886 532.641 662.253 529.961 642.463 529.961V844.351H502.914V155.404ZM676.133 410.45C695.388 410.45 705.022 389.602 705.022 347.891C705.022 329.716 704.211 316.082 702.603 306.991C701.009 297.907 698.068 291.626 693.78 288.163C689.506 284.686 683.362 282.941 675.336 282.941H643.26V410.45H676.133Z" fill="#011838"/>
<path d="M879.055 844.351V155.404H1012.2V844.351H879.055Z" fill="#011838"/>
<path d="M1067.55 844.351V155.404H1209.49L1272.87 485.048V155.404H1405.99V844.351H1271.25L1202.29 499.479V844.351H1067.55Z" fill="#011838"/>
<path d="M1608.9 850.755C1559.19 850.755 1522.16 833.247 1497.83 798.229C1473.51 763.211 1461.36 710.149 1461.36 639.028V342.284C1461.36 278.667 1475.52 230.545 1503.85 197.926C1532.19 165.313 1574.43 149 1630.56 149C1676.02 149 1711.32 158.091 1736.44 176.267C1761.56 194.449 1778.93 220.918 1788.55 255.675C1798.19 290.418 1803.01 335.069 1803.01 389.616H1668.27V327.854C1668.27 311.273 1666 298.437 1661.46 289.346C1656.91 280.261 1648.76 275.712 1636.99 275.712C1610.79 275.712 1597.69 292.829 1597.69 327.057V660.687C1597.69 681.542 1600.36 697.319 1605.71 708.019C1611.06 718.704 1620.42 724.043 1633.78 724.043C1647.15 724.043 1656.51 718.704 1661.84 708.019C1667.19 697.319 1669.87 681.542 1669.87 660.687V562.038H1632.98V443.324H1801.39V844.351H1746.06L1722.81 786.602C1698.21 829.371 1660.25 850.755 1608.9 850.755Z" fill="#011838"/>
<mask id="mask0_986_22877" style="mask-type:luminance" maskUnits="userSpaceOnUse" x="77" y="895" width="1767" height="35">
<path d="M77 895.69H1843.05V930H77V895.69Z" fill="white"/>
</mask>
<g mask="url(#mask0_986_22877)">
<mask id="mask1_986_22877" style="mask-type:luminance" maskUnits="userSpaceOnUse" x="77" y="895" width="1766" height="35">
<path d="M94.1515 895.69H1825.78C1830.33 895.69 1834.69 897.498 1837.91 900.714C1841.13 903.929 1842.93 908.293 1842.93 912.842C1842.93 917.391 1841.13 921.754 1837.91 924.977C1834.69 928.193 1830.33 930 1825.78 930H94.1515C89.6025 930 85.239 928.193 82.0231 924.977C78.8072 921.754 77 917.391 77 912.842C77 908.293 78.8072 903.929 82.0231 900.714C85.239 897.498 89.6025 895.69 94.1515 895.69Z" fill="white"/>
</mask>
<g mask="url(#mask1_986_22877)">
<path d="M77 895.69H1842.93V930H77V895.69Z" fill="#62A4FF"/>
</g>
</g>
</svg>
