<svg xmlns="http://www.w3.org/2000/svg" xmlns:xlink="http://www.w3.org/1999/xlink" width="1920" zoomAndPan="magnify" viewBox="0 0 1440 809.999993" height="1080" preserveAspectRatio="xMidYMid meet" version="1.0"><defs><g/><clipPath id="b9a9adbaac"><path d="M 218.066406 570.371094 L 1222 570.371094 L 1222 589.875 L 218.066406 589.875 Z M 218.066406 570.371094 " clip-rule="nonzero"/></clipPath><clipPath id="7fea0bd84d"><path d="M 227.816406 570.371094 L 1212.183594 570.371094 C 1214.769531 570.371094 1217.25 571.398438 1219.078125 573.226562 C 1220.90625 575.054688 1221.933594 577.535156 1221.933594 580.121094 C 1221.933594 582.707031 1220.90625 585.1875 1219.078125 587.019531 C 1217.25 588.847656 1214.769531 589.875 1212.183594 589.875 L 227.816406 589.875 C 225.230469 589.875 222.75 588.847656 220.921875 587.019531 C 219.09375 585.1875 218.066406 582.707031 218.066406 580.121094 C 218.066406 577.535156 219.09375 575.054688 220.921875 573.226562 C 222.75 571.398438 225.230469 570.371094 227.816406 570.371094 Z M 227.816406 570.371094 " clip-rule="nonzero"/></clipPath></defs><g fill="#62a4ff" fill-opacity="1"><g transform="translate(218.065454, 541.186884)"><g><path d="M 17.328125 -391.640625 L 125.375 -391.640625 C 153.34375 -391.640625 174.316406 -383.890625 188.296875 -368.390625 C 202.273438 -352.890625 209.414062 -329.941406 209.71875 -299.546875 L 210.640625 -116.265625 C 210.941406 -77.660156 204.253906 -48.628906 190.578125 -29.171875 C 176.898438 -9.722656 154.253906 0 122.640625 0 L 17.328125 0 Z M 109.875 -69.296875 C 124.164062 -69.296875 131.3125 -76.285156 131.3125 -90.265625 L 131.3125 -292.25 C 131.3125 -301.0625 130.625 -307.671875 129.25 -312.078125 C 127.882812 -316.484375 125.378906 -319.445312 121.734375 -320.96875 C 118.085938 -322.488281 112.460938 -323.25 104.859375 -323.25 L 96.203125 -323.25 L 96.203125 -69.296875 Z M 109.875 -69.296875 "/></g></g></g><g fill="#011838" fill-opacity="1"><g transform="translate(442.854572, 541.186884)"><g><path d="M 17.328125 -391.640625 L 137.6875 -391.640625 C 156.832031 -391.640625 171.648438 -387.304688 182.140625 -378.640625 C 192.628906 -369.984375 199.695312 -357.828125 203.34375 -342.171875 C 206.988281 -326.515625 208.8125 -306.53125 208.8125 -282.21875 C 208.8125 -260.03125 205.921875 -242.703125 200.140625 -230.234375 C 194.367188 -217.773438 184.34375 -209.113281 170.0625 -204.25 C 181.914062 -201.820312 190.5 -195.894531 195.8125 -186.46875 C 201.132812 -177.050781 203.796875 -164.285156 203.796875 -148.171875 L 202.890625 0 L 126.296875 0 L 126.296875 -153.1875 C 126.296875 -164.132812 124.164062 -171.125 119.90625 -174.15625 C 115.65625 -177.195312 107.90625 -178.71875 96.65625 -178.71875 L 96.65625 0 L 17.328125 0 Z M 115.796875 -246.65625 C 126.742188 -246.65625 132.21875 -258.507812 132.21875 -282.21875 C 132.21875 -292.550781 131.757812 -300.300781 130.84375 -305.46875 C 129.9375 -310.632812 128.265625 -314.203125 125.828125 -316.171875 C 123.398438 -318.148438 119.90625 -319.140625 115.34375 -319.140625 L 97.109375 -319.140625 L 97.109375 -246.65625 Z M 115.796875 -246.65625 "/></g></g></g><g fill="#011838" fill-opacity="1"><g transform="translate(660.332393, 541.186884)"><g><path d="M 13.671875 0 L 13.671875 -391.640625 L 89.359375 -391.640625 L 89.359375 0 Z M 13.671875 0 "/></g></g></g><g fill="#011838" fill-opacity="1"><g transform="translate(763.82804, 541.186884)"><g><path d="M 17.328125 0 L 17.328125 -391.640625 L 98.015625 -391.640625 L 134.046875 -204.25 L 134.046875 -391.640625 L 209.71875 -391.640625 L 209.71875 0 L 133.125 0 L 93.921875 -196.046875 L 93.921875 0 Z M 17.328125 0 "/></g></g></g><g fill="#011838" fill-opacity="1"><g transform="translate(990.880311, 541.186884)"><g><path d="M 98.015625 3.640625 C 69.753906 3.640625 48.707031 -6.3125 34.875 -26.21875 C 21.050781 -46.125 14.140625 -76.289062 14.140625 -116.71875 L 14.140625 -285.40625 C 14.140625 -321.570312 22.191406 -348.925781 38.296875 -367.46875 C 54.410156 -386.007812 78.421875 -395.28125 110.328125 -395.28125 C 136.171875 -395.28125 156.234375 -390.113281 170.515625 -379.78125 C 184.796875 -369.445312 194.671875 -354.398438 200.140625 -334.640625 C 205.617188 -314.890625 208.359375 -289.507812 208.359375 -258.5 L 131.765625 -258.5 L 131.765625 -293.609375 C 131.765625 -303.035156 130.472656 -310.332031 127.890625 -315.5 C 125.304688 -320.664062 120.671875 -323.25 113.984375 -323.25 C 99.085938 -323.25 91.640625 -313.519531 91.640625 -294.0625 L 91.640625 -104.40625 C 91.640625 -92.550781 93.160156 -83.582031 96.203125 -77.5 C 99.242188 -71.425781 104.5625 -68.390625 112.15625 -68.390625 C 119.757812 -68.390625 125.078125 -71.425781 128.109375 -77.5 C 131.148438 -83.582031 132.671875 -92.550781 132.671875 -104.40625 L 132.671875 -160.484375 L 111.703125 -160.484375 L 111.703125 -227.96875 L 207.4375 -227.96875 L 207.4375 0 L 175.984375 0 L 162.765625 -32.828125 C 148.785156 -8.515625 127.203125 3.640625 98.015625 3.640625 Z M 98.015625 3.640625 "/></g></g></g><g clip-path="url(#b9a9adbaac)"><g clip-path="url(#7fea0bd84d)"><path fill="#62a4ff" d="M 218.066406 570.371094 L 1221.933594 570.371094 L 1221.933594 589.875 L 218.066406 589.875 Z M 218.066406 570.371094 " fill-opacity="1" fill-rule="nonzero"/></g></g><g fill="#011838" fill-opacity="1"><g transform="translate(227.070612, 711.670356)"><g><path d="M 31.65625 -35.921875 L 31.65625 0 L 26.953125 0 L 26.953125 -16.28125 L 8.65625 -16.28125 L 8.65625 0 L 3.96875 0 L 3.96875 -35.921875 L 8.65625 -35.921875 L 8.65625 -20.15625 L 26.953125 -20.15625 L 26.953125 -35.921875 Z M 31.65625 -35.921875 "/></g></g></g><g fill="#011838" fill-opacity="1"><g transform="translate(262.735513, 711.670356)"><g><path d="M 6.390625 -32.828125 C 5.492188 -32.828125 4.738281 -33.132812 4.125 -33.75 C 3.507812 -34.375 3.203125 -35.132812 3.203125 -36.03125 C 3.203125 -36.925781 3.507812 -37.679688 4.125 -38.296875 C 4.738281 -38.921875 5.492188 -39.234375 6.390625 -39.234375 C 7.253906 -39.234375 7.984375 -38.921875 8.578125 -38.296875 C 9.179688 -37.679688 9.484375 -36.925781 9.484375 -36.03125 C 9.484375 -35.132812 9.179688 -34.375 8.578125 -33.75 C 7.984375 -33.132812 7.253906 -32.828125 6.390625 -32.828125 Z M 8.65625 -28.25 L 8.65625 0 L 3.96875 0 L 3.96875 -28.25 Z M 8.65625 -28.25 "/></g></g></g><g fill="#011838" fill-opacity="1"><g transform="translate(275.414078, 711.670356)"><g><path d="M 8.65625 -23.65625 C 9.476562 -25.269531 10.65625 -26.523438 12.1875 -27.421875 C 13.71875 -28.316406 15.582031 -28.765625 17.78125 -28.765625 L 17.78125 -23.921875 L 16.546875 -23.921875 C 11.285156 -23.921875 8.65625 -21.066406 8.65625 -15.359375 L 8.65625 0 L 3.96875 0 L 3.96875 -28.25 L 8.65625 -28.25 Z M 8.65625 -23.65625 "/></g></g></g><g fill="#011838" fill-opacity="1"><g transform="translate(294.63807, 711.670356)"><g><path d="M 29.75 -15.203125 C 29.75 -14.304688 29.695312 -13.363281 29.59375 -12.375 L 7.015625 -12.375 C 7.179688 -9.59375 8.128906 -7.414062 9.859375 -5.84375 C 11.597656 -4.28125 13.707031 -3.5 16.1875 -3.5 C 18.21875 -3.5 19.910156 -3.972656 21.265625 -4.921875 C 22.617188 -5.867188 23.570312 -7.132812 24.125 -8.71875 L 29.171875 -8.71875 C 28.421875 -6 26.910156 -3.785156 24.640625 -2.078125 C 22.367188 -0.378906 19.550781 0.46875 16.1875 0.46875 C 13.507812 0.46875 11.113281 -0.128906 9 -1.328125 C 6.882812 -2.535156 5.222656 -4.25 4.015625 -6.46875 C 2.816406 -8.6875 2.21875 -11.253906 2.21875 -14.171875 C 2.21875 -17.097656 2.800781 -19.660156 3.96875 -21.859375 C 5.132812 -24.054688 6.773438 -25.75 8.890625 -26.9375 C 11.003906 -28.125 13.4375 -28.71875 16.1875 -28.71875 C 18.863281 -28.71875 21.234375 -28.128906 23.296875 -26.953125 C 25.359375 -25.785156 26.945312 -24.179688 28.0625 -22.140625 C 29.1875 -20.097656 29.75 -17.785156 29.75 -15.203125 Z M 24.890625 -16.1875 C 24.890625 -17.96875 24.492188 -19.503906 23.703125 -20.796875 C 22.921875 -22.085938 21.847656 -23.066406 20.484375 -23.734375 C 19.128906 -24.410156 17.628906 -24.75 15.984375 -24.75 C 13.609375 -24.75 11.585938 -23.988281 9.921875 -22.46875 C 8.253906 -20.957031 7.300781 -18.863281 7.0625 -16.1875 Z M 24.890625 -16.1875 "/></g></g></g><g fill="#011838" fill-opacity="1"><g transform="translate(326.592174, 711.670356)"><g/></g></g><g fill="#011838" fill-opacity="1"><g transform="translate(340.353058, 711.670356)"><g><path d="M 25.203125 -7.984375 L 9.53125 -7.984375 L 6.65625 0 L 1.703125 0 L 14.6875 -35.71875 L 20.109375 -35.71875 L 33.046875 0 L 28.09375 0 Z M 23.859375 -11.796875 L 17.375 -29.953125 L 10.875 -11.796875 Z M 23.859375 -11.796875 "/></g></g></g><g fill="#011838" fill-opacity="1"><g transform="translate(375.090265, 711.670356)"><g><path d="M 8.65625 -35.921875 L 8.65625 0 L 3.96875 0 L 3.96875 -35.921875 Z M 8.65625 -35.921875 "/></g></g></g><g fill="#011838" fill-opacity="1"><g transform="translate(387.768829, 711.670356)"><g/></g></g><g fill="#011838" fill-opacity="1"><g transform="translate(401.529714, 711.670356)"><g><path d="M 25.203125 -7.984375 L 9.53125 -7.984375 L 6.65625 0 L 1.703125 0 L 14.6875 -35.71875 L 20.109375 -35.71875 L 33.046875 0 L 28.09375 0 Z M 23.859375 -11.796875 L 17.375 -29.953125 L 10.875 -11.796875 Z M 23.859375 -11.796875 "/></g></g></g><g fill="#011838" fill-opacity="1"><g transform="translate(436.26692, 711.670356)"><g><path d="M 15.625 -28.71875 C 18.0625 -28.71875 20.195312 -28.179688 22.03125 -27.109375 C 23.875 -26.046875 25.242188 -24.707031 26.140625 -23.09375 L 26.140625 -28.25 L 30.875 -28.25 L 30.875 0.625 C 30.875 3.195312 30.320312 5.488281 29.21875 7.5 C 28.125 9.507812 26.550781 11.082031 24.5 12.21875 C 22.457031 13.351562 20.082031 13.921875 17.375 13.921875 C 13.65625 13.921875 10.554688 13.039062 8.078125 11.28125 C 5.609375 9.53125 4.15625 7.144531 3.71875 4.125 L 8.34375 4.125 C 8.863281 5.84375 9.929688 7.222656 11.546875 8.265625 C 13.160156 9.316406 15.101562 9.84375 17.375 9.84375 C 19.945312 9.84375 22.050781 9.035156 23.6875 7.421875 C 25.320312 5.804688 26.140625 3.539062 26.140625 0.625 L 26.140625 -5.3125 C 25.210938 -3.65625 23.835938 -2.273438 22.015625 -1.171875 C 20.191406 -0.078125 18.0625 0.46875 15.625 0.46875 C 13.113281 0.46875 10.832031 -0.148438 8.78125 -1.390625 C 6.738281 -2.628906 5.132812 -4.363281 3.96875 -6.59375 C 2.800781 -8.832031 2.21875 -11.378906 2.21875 -14.234375 C 2.21875 -17.117188 2.800781 -19.648438 3.96875 -21.828125 C 5.132812 -24.015625 6.738281 -25.707031 8.78125 -26.90625 C 10.832031 -28.113281 13.113281 -28.71875 15.625 -28.71875 Z M 26.140625 -14.171875 C 26.140625 -16.304688 25.707031 -18.160156 24.84375 -19.734375 C 23.988281 -21.316406 22.828125 -22.53125 21.359375 -23.375 C 19.898438 -24.21875 18.296875 -24.640625 16.546875 -24.640625 C 14.796875 -24.640625 13.195312 -24.226562 11.75 -23.40625 C 10.3125 -22.582031 9.160156 -21.378906 8.296875 -19.796875 C 7.441406 -18.210938 7.015625 -16.359375 7.015625 -14.234375 C 7.015625 -12.066406 7.441406 -10.179688 8.296875 -8.578125 C 9.160156 -6.984375 10.3125 -5.765625 11.75 -4.921875 C 13.195312 -4.078125 14.796875 -3.65625 16.546875 -3.65625 C 18.296875 -3.65625 19.898438 -4.078125 21.359375 -4.921875 C 22.828125 -5.765625 23.988281 -6.984375 24.84375 -8.578125 C 25.707031 -10.179688 26.140625 -12.046875 26.140625 -14.171875 Z M 26.140625 -14.171875 "/></g></g></g><g fill="#011838" fill-opacity="1"><g transform="translate(471.107204, 711.670356)"><g><path d="M 29.75 -15.203125 C 29.75 -14.304688 29.695312 -13.363281 29.59375 -12.375 L 7.015625 -12.375 C 7.179688 -9.59375 8.128906 -7.414062 9.859375 -5.84375 C 11.597656 -4.28125 13.707031 -3.5 16.1875 -3.5 C 18.21875 -3.5 19.910156 -3.972656 21.265625 -4.921875 C 22.617188 -5.867188 23.570312 -7.132812 24.125 -8.71875 L 29.171875 -8.71875 C 28.421875 -6 26.910156 -3.785156 24.640625 -2.078125 C 22.367188 -0.378906 19.550781 0.46875 16.1875 0.46875 C 13.507812 0.46875 11.113281 -0.128906 9 -1.328125 C 6.882812 -2.535156 5.222656 -4.25 4.015625 -6.46875 C 2.816406 -8.6875 2.21875 -11.253906 2.21875 -14.171875 C 2.21875 -17.097656 2.800781 -19.660156 3.96875 -21.859375 C 5.132812 -24.054688 6.773438 -25.75 8.890625 -26.9375 C 11.003906 -28.125 13.4375 -28.71875 16.1875 -28.71875 C 18.863281 -28.71875 21.234375 -28.128906 23.296875 -26.953125 C 25.359375 -25.785156 26.945312 -24.179688 28.0625 -22.140625 C 29.1875 -20.097656 29.75 -17.785156 29.75 -15.203125 Z M 24.890625 -16.1875 C 24.890625 -17.96875 24.492188 -19.503906 23.703125 -20.796875 C 22.921875 -22.085938 21.847656 -23.066406 20.484375 -23.734375 C 19.128906 -24.410156 17.628906 -24.75 15.984375 -24.75 C 13.609375 -24.75 11.585938 -23.988281 9.921875 -22.46875 C 8.253906 -20.957031 7.300781 -18.863281 7.0625 -16.1875 Z M 24.890625 -16.1875 "/></g></g></g><g fill="#011838" fill-opacity="1"><g transform="translate(503.061309, 711.670356)"><g><path d="M 17.734375 -28.765625 C 21.171875 -28.765625 23.953125 -27.722656 26.078125 -25.640625 C 28.210938 -23.566406 29.28125 -20.570312 29.28125 -16.65625 L 29.28125 0 L 24.640625 0 L 24.640625 -15.984375 C 24.640625 -18.796875 23.929688 -20.945312 22.515625 -22.4375 C 21.109375 -23.9375 19.1875 -24.6875 16.75 -24.6875 C 14.28125 -24.6875 12.3125 -23.910156 10.84375 -22.359375 C 9.382812 -20.816406 8.65625 -18.570312 8.65625 -15.625 L 8.65625 0 L 3.96875 0 L 3.96875 -28.25 L 8.65625 -28.25 L 8.65625 -24.234375 C 9.582031 -25.671875 10.84375 -26.785156 12.4375 -27.578125 C 14.039062 -28.367188 15.804688 -28.765625 17.734375 -28.765625 Z M 17.734375 -28.765625 "/></g></g></g><g fill="#011838" fill-opacity="1"><g transform="translate(536.046184, 711.670356)"><g><path d="M 9.6875 -24.375 L 9.6875 -7.734375 C 9.6875 -6.359375 9.976562 -5.382812 10.5625 -4.8125 C 11.144531 -4.25 12.160156 -3.96875 13.609375 -3.96875 L 17.0625 -3.96875 L 17.0625 0 L 12.828125 0 C 10.222656 0 8.265625 -0.597656 6.953125 -1.796875 C 5.648438 -3.003906 5 -4.984375 5 -7.734375 L 5 -24.375 L 1.34375 -24.375 L 1.34375 -28.25 L 5 -28.25 L 5 -35.359375 L 9.6875 -35.359375 L 9.6875 -28.25 L 17.0625 -28.25 L 17.0625 -24.375 Z M 9.6875 -24.375 "/></g></g></g><g fill="#011838" fill-opacity="1"><g transform="translate(554.806357, 711.670356)"><g><path d="M 13.96875 0.46875 C 11.800781 0.46875 9.859375 0.0976562 8.140625 -0.640625 C 6.421875 -1.378906 5.0625 -2.410156 4.0625 -3.734375 C 3.070312 -5.054688 2.523438 -6.578125 2.421875 -8.296875 L 7.265625 -8.296875 C 7.398438 -6.890625 8.0625 -5.738281 9.25 -4.84375 C 10.4375 -3.945312 11.992188 -3.5 13.921875 -3.5 C 15.703125 -3.5 17.109375 -3.894531 18.140625 -4.6875 C 19.171875 -5.476562 19.6875 -6.476562 19.6875 -7.6875 C 19.6875 -8.914062 19.132812 -9.832031 18.03125 -10.4375 C 16.9375 -11.039062 15.238281 -11.632812 12.9375 -12.21875 C 10.84375 -12.769531 9.132812 -13.328125 7.8125 -13.890625 C 6.488281 -14.460938 5.351562 -15.304688 4.40625 -16.421875 C 3.457031 -17.535156 2.984375 -19.003906 2.984375 -20.828125 C 2.984375 -22.265625 3.410156 -23.582031 4.265625 -24.78125 C 5.128906 -25.988281 6.351562 -26.945312 7.9375 -27.65625 C 9.519531 -28.363281 11.320312 -28.71875 13.34375 -28.71875 C 16.476562 -28.71875 19.003906 -27.925781 20.921875 -26.34375 C 22.847656 -24.757812 23.878906 -22.59375 24.015625 -19.84375 L 19.328125 -19.84375 C 19.222656 -21.320312 18.628906 -22.507812 17.546875 -23.40625 C 16.460938 -24.300781 15.015625 -24.75 13.203125 -24.75 C 11.515625 -24.75 10.171875 -24.382812 9.171875 -23.65625 C 8.179688 -22.9375 7.6875 -21.992188 7.6875 -20.828125 C 7.6875 -19.898438 7.984375 -19.132812 8.578125 -18.53125 C 9.179688 -17.925781 9.9375 -17.441406 10.84375 -17.078125 C 11.757812 -16.722656 13.023438 -16.320312 14.640625 -15.875 C 16.671875 -15.320312 18.320312 -14.78125 19.59375 -14.25 C 20.863281 -13.71875 21.953125 -12.921875 22.859375 -11.859375 C 23.773438 -10.796875 24.25 -9.40625 24.28125 -7.6875 C 24.28125 -6.132812 23.847656 -4.738281 22.984375 -3.5 C 22.128906 -2.269531 20.921875 -1.300781 19.359375 -0.59375 C 17.796875 0.113281 16 0.46875 13.96875 0.46875 Z M 13.96875 0.46875 "/></g></g></g><g fill="#011838" fill-opacity="1"><g transform="translate(581.709663, 711.670356)"><g><path d="M 8.8125 -6.5 L 3.046875 7.375 L -0.109375 7.375 L 3.65625 -6.5 Z M 8.8125 -6.5 "/></g></g></g><g fill="#011838" fill-opacity="1"><g transform="translate(591.914357, 711.670356)"><g/></g></g><g fill="#011838" fill-opacity="1"><g transform="translate(605.67526, 711.670356)"><g><path d="M 25.203125 -7.984375 L 9.53125 -7.984375 L 6.65625 0 L 1.703125 0 L 14.6875 -35.71875 L 20.109375 -35.71875 L 33.046875 0 L 28.09375 0 Z M 23.859375 -11.796875 L 17.375 -29.953125 L 10.875 -11.796875 Z M 23.859375 -11.796875 "/></g></g></g><g fill="#011838" fill-opacity="1"><g transform="translate(640.412467, 711.670356)"><g><path d="M 17.734375 -28.765625 C 21.171875 -28.765625 23.953125 -27.722656 26.078125 -25.640625 C 28.210938 -23.566406 29.28125 -20.570312 29.28125 -16.65625 L 29.28125 0 L 24.640625 0 L 24.640625 -15.984375 C 24.640625 -18.796875 23.929688 -20.945312 22.515625 -22.4375 C 21.109375 -23.9375 19.1875 -24.6875 16.75 -24.6875 C 14.28125 -24.6875 12.3125 -23.910156 10.84375 -22.359375 C 9.382812 -20.816406 8.65625 -18.570312 8.65625 -15.625 L 8.65625 0 L 3.96875 0 L 3.96875 -28.25 L 8.65625 -28.25 L 8.65625 -24.234375 C 9.582031 -25.671875 10.84375 -26.785156 12.4375 -27.578125 C 14.039062 -28.367188 15.804688 -28.765625 17.734375 -28.765625 Z M 17.734375 -28.765625 "/></g></g></g><g fill="#011838" fill-opacity="1"><g transform="translate(673.397342, 711.670356)"><g><path d="M 28.296875 -28.25 L 11.28125 13.296875 L 6.4375 13.296875 L 12.015625 -0.3125 L 0.625 -28.25 L 5.828125 -28.25 L 14.6875 -5.359375 L 23.453125 -28.25 Z M 28.296875 -28.25 "/></g></g></g><g fill="#011838" fill-opacity="1"><g transform="translate(702.413739, 711.670356)"><g><path d="M 9.6875 -24.375 L 9.6875 -7.734375 C 9.6875 -6.359375 9.976562 -5.382812 10.5625 -4.8125 C 11.144531 -4.25 12.160156 -3.96875 13.609375 -3.96875 L 17.0625 -3.96875 L 17.0625 0 L 12.828125 0 C 10.222656 0 8.265625 -0.597656 6.953125 -1.796875 C 5.648438 -3.003906 5 -4.984375 5 -7.734375 L 5 -24.375 L 1.34375 -24.375 L 1.34375 -28.25 L 5 -28.25 L 5 -35.359375 L 9.6875 -35.359375 L 9.6875 -28.25 L 17.0625 -28.25 L 17.0625 -24.375 Z M 9.6875 -24.375 "/></g></g></g><g fill="#011838" fill-opacity="1"><g transform="translate(721.173893, 711.670356)"><g><path d="M 6.390625 -32.828125 C 5.492188 -32.828125 4.738281 -33.132812 4.125 -33.75 C 3.507812 -34.375 3.203125 -35.132812 3.203125 -36.03125 C 3.203125 -36.925781 3.507812 -37.679688 4.125 -38.296875 C 4.738281 -38.921875 5.492188 -39.234375 6.390625 -39.234375 C 7.253906 -39.234375 7.984375 -38.921875 8.578125 -38.296875 C 9.179688 -37.679688 9.484375 -36.925781 9.484375 -36.03125 C 9.484375 -35.132812 9.179688 -34.375 8.578125 -33.75 C 7.984375 -33.132812 7.253906 -32.828125 6.390625 -32.828125 Z M 8.65625 -28.25 L 8.65625 0 L 3.96875 0 L 3.96875 -28.25 Z M 8.65625 -28.25 "/></g></g></g><g fill="#011838" fill-opacity="1"><g transform="translate(733.852439, 711.670356)"><g><path d="M 37.9375 -28.765625 C 40.132812 -28.765625 42.09375 -28.304688 43.8125 -27.390625 C 45.53125 -26.484375 46.882812 -25.117188 47.875 -23.296875 C 48.875 -21.472656 49.375 -19.257812 49.375 -16.65625 L 49.375 0 L 44.75 0 L 44.75 -15.984375 C 44.75 -18.796875 44.050781 -20.945312 42.65625 -22.4375 C 41.257812 -23.9375 39.378906 -24.6875 37.015625 -24.6875 C 34.566406 -24.6875 32.617188 -23.90625 31.171875 -22.34375 C 29.734375 -20.78125 29.015625 -18.519531 29.015625 -15.5625 L 29.015625 0 L 24.375 0 L 24.375 -15.984375 C 24.375 -18.796875 23.675781 -20.945312 22.28125 -22.4375 C 20.894531 -23.9375 19.019531 -24.6875 16.65625 -24.6875 C 14.207031 -24.6875 12.257812 -23.90625 10.8125 -22.34375 C 9.375 -20.78125 8.65625 -18.519531 8.65625 -15.5625 L 8.65625 0 L 3.96875 0 L 3.96875 -28.25 L 8.65625 -28.25 L 8.65625 -24.171875 C 9.582031 -25.648438 10.828125 -26.785156 12.390625 -27.578125 C 13.960938 -28.367188 15.691406 -28.765625 17.578125 -28.765625 C 19.953125 -28.765625 22.046875 -28.226562 23.859375 -27.15625 C 25.679688 -26.09375 27.039062 -24.53125 27.9375 -22.46875 C 28.726562 -24.46875 30.035156 -26.015625 31.859375 -27.109375 C 33.679688 -28.210938 35.707031 -28.765625 37.9375 -28.765625 Z M 37.9375 -28.765625 "/></g></g></g><g fill="#011838" fill-opacity="1"><g transform="translate(786.937454, 711.670356)"><g><path d="M 29.75 -15.203125 C 29.75 -14.304688 29.695312 -13.363281 29.59375 -12.375 L 7.015625 -12.375 C 7.179688 -9.59375 8.128906 -7.414062 9.859375 -5.84375 C 11.597656 -4.28125 13.707031 -3.5 16.1875 -3.5 C 18.21875 -3.5 19.910156 -3.972656 21.265625 -4.921875 C 22.617188 -5.867188 23.570312 -7.132812 24.125 -8.71875 L 29.171875 -8.71875 C 28.421875 -6 26.910156 -3.785156 24.640625 -2.078125 C 22.367188 -0.378906 19.550781 0.46875 16.1875 0.46875 C 13.507812 0.46875 11.113281 -0.128906 9 -1.328125 C 6.882812 -2.535156 5.222656 -4.25 4.015625 -6.46875 C 2.816406 -8.6875 2.21875 -11.253906 2.21875 -14.171875 C 2.21875 -17.097656 2.800781 -19.660156 3.96875 -21.859375 C 5.132812 -24.054688 6.773438 -25.75 8.890625 -26.9375 C 11.003906 -28.125 13.4375 -28.71875 16.1875 -28.71875 C 18.863281 -28.71875 21.234375 -28.128906 23.296875 -26.953125 C 25.359375 -25.785156 26.945312 -24.179688 28.0625 -22.140625 C 29.1875 -20.097656 29.75 -17.785156 29.75 -15.203125 Z M 24.890625 -16.1875 C 24.890625 -17.96875 24.492188 -19.503906 23.703125 -20.796875 C 22.921875 -22.085938 21.847656 -23.066406 20.484375 -23.734375 C 19.128906 -24.410156 17.628906 -24.75 15.984375 -24.75 C 13.609375 -24.75 11.585938 -23.988281 9.921875 -22.46875 C 8.253906 -20.957031 7.300781 -18.863281 7.0625 -16.1875 Z M 24.890625 -16.1875 "/></g></g></g><g fill="#011838" fill-opacity="1"><g transform="translate(818.891558, 711.670356)"><g><path d="M 8.8125 -6.5 L 3.046875 7.375 L -0.109375 7.375 L 3.65625 -6.5 Z M 8.8125 -6.5 "/></g></g></g><g fill="#011838" fill-opacity="1"><g transform="translate(829.096253, 711.670356)"><g/></g></g><g fill="#011838" fill-opacity="1"><g transform="translate(842.857155, 711.670356)"><g><path d="M 25.203125 -7.984375 L 9.53125 -7.984375 L 6.65625 0 L 1.703125 0 L 14.6875 -35.71875 L 20.109375 -35.71875 L 33.046875 0 L 28.09375 0 Z M 23.859375 -11.796875 L 17.375 -29.953125 L 10.875 -11.796875 Z M 23.859375 -11.796875 "/></g></g></g><g fill="#011838" fill-opacity="1"><g transform="translate(877.594398, 711.670356)"><g><path d="M 17.734375 -28.765625 C 21.171875 -28.765625 23.953125 -27.722656 26.078125 -25.640625 C 28.210938 -23.566406 29.28125 -20.570312 29.28125 -16.65625 L 29.28125 0 L 24.640625 0 L 24.640625 -15.984375 C 24.640625 -18.796875 23.929688 -20.945312 22.515625 -22.4375 C 21.109375 -23.9375 19.1875 -24.6875 16.75 -24.6875 C 14.28125 -24.6875 12.3125 -23.910156 10.84375 -22.359375 C 9.382812 -20.816406 8.65625 -18.570312 8.65625 -15.625 L 8.65625 0 L 3.96875 0 L 3.96875 -28.25 L 8.65625 -28.25 L 8.65625 -24.234375 C 9.582031 -25.671875 10.84375 -26.785156 12.4375 -27.578125 C 14.039062 -28.367188 15.804688 -28.765625 17.734375 -28.765625 Z M 17.734375 -28.765625 "/></g></g></g><g fill="#011838" fill-opacity="1"><g transform="translate(910.579238, 711.670356)"><g><path d="M 28.296875 -28.25 L 11.28125 13.296875 L 6.4375 13.296875 L 12.015625 -0.3125 L 0.625 -28.25 L 5.828125 -28.25 L 14.6875 -5.359375 L 23.453125 -28.25 Z M 28.296875 -28.25 "/></g></g></g><g fill="#011838" fill-opacity="1"><g transform="translate(939.595634, 711.670356)"><g/></g></g><g fill="#011838" fill-opacity="1"><g transform="translate(953.356537, 711.670356)"><g><path d="M 8.65625 -3.8125 L 21.234375 -3.8125 L 21.234375 0 L 3.96875 0 L 3.96875 -35.921875 L 8.65625 -35.921875 Z M 8.65625 -3.8125 "/></g></g></g><g fill="#011838" fill-opacity="1"><g transform="translate(975.621351, 711.670356)"><g><path d="M 2.21875 -14.234375 C 2.21875 -17.117188 2.800781 -19.648438 3.96875 -21.828125 C 5.132812 -24.015625 6.738281 -25.707031 8.78125 -26.90625 C 10.832031 -28.113281 13.113281 -28.71875 15.625 -28.71875 C 18.09375 -28.71875 20.238281 -28.179688 22.0625 -27.109375 C 23.882812 -26.046875 25.242188 -24.707031 26.140625 -23.09375 L 26.140625 -28.25 L 30.875 -28.25 L 30.875 0 L 26.140625 0 L 26.140625 -5.25 C 25.210938 -3.601562 23.828125 -2.238281 21.984375 -1.15625 C 20.148438 -0.0703125 18.007812 0.46875 15.5625 0.46875 C 13.050781 0.46875 10.78125 -0.148438 8.75 -1.390625 C 6.726562 -2.628906 5.132812 -4.363281 3.96875 -6.59375 C 2.800781 -8.832031 2.21875 -11.378906 2.21875 -14.234375 Z M 26.140625 -14.171875 C 26.140625 -16.304688 25.707031 -18.160156 24.84375 -19.734375 C 23.988281 -21.316406 22.828125 -22.53125 21.359375 -23.375 C 19.898438 -24.21875 18.296875 -24.640625 16.546875 -24.640625 C 14.796875 -24.640625 13.195312 -24.226562 11.75 -23.40625 C 10.3125 -22.582031 9.160156 -21.378906 8.296875 -19.796875 C 7.441406 -18.210938 7.015625 -16.359375 7.015625 -14.234375 C 7.015625 -12.066406 7.441406 -10.179688 8.296875 -8.578125 C 9.160156 -6.984375 10.3125 -5.765625 11.75 -4.921875 C 13.195312 -4.078125 14.796875 -3.65625 16.546875 -3.65625 C 18.296875 -3.65625 19.898438 -4.078125 21.359375 -4.921875 C 22.828125 -5.765625 23.988281 -6.984375 24.84375 -8.578125 C 25.707031 -10.179688 26.140625 -12.046875 26.140625 -14.171875 Z M 26.140625 -14.171875 "/></g></g></g><g fill="#011838" fill-opacity="1"><g transform="translate(1010.461616, 711.670356)"><g><path d="M 17.734375 -28.765625 C 21.171875 -28.765625 23.953125 -27.722656 26.078125 -25.640625 C 28.210938 -23.566406 29.28125 -20.570312 29.28125 -16.65625 L 29.28125 0 L 24.640625 0 L 24.640625 -15.984375 C 24.640625 -18.796875 23.929688 -20.945312 22.515625 -22.4375 C 21.109375 -23.9375 19.1875 -24.6875 16.75 -24.6875 C 14.28125 -24.6875 12.3125 -23.910156 10.84375 -22.359375 C 9.382812 -20.816406 8.65625 -18.570312 8.65625 -15.625 L 8.65625 0 L 3.96875 0 L 3.96875 -28.25 L 8.65625 -28.25 L 8.65625 -24.234375 C 9.582031 -25.671875 10.84375 -26.785156 12.4375 -27.578125 C 14.039062 -28.367188 15.804688 -28.765625 17.734375 -28.765625 Z M 17.734375 -28.765625 "/></g></g></g><g fill="#011838" fill-opacity="1"><g transform="translate(1043.446456, 711.670356)"><g><path d="M 15.625 -28.71875 C 18.0625 -28.71875 20.195312 -28.179688 22.03125 -27.109375 C 23.875 -26.046875 25.242188 -24.707031 26.140625 -23.09375 L 26.140625 -28.25 L 30.875 -28.25 L 30.875 0.625 C 30.875 3.195312 30.320312 5.488281 29.21875 7.5 C 28.125 9.507812 26.550781 11.082031 24.5 12.21875 C 22.457031 13.351562 20.082031 13.921875 17.375 13.921875 C 13.65625 13.921875 10.554688 13.039062 8.078125 11.28125 C 5.609375 9.53125 4.15625 7.144531 3.71875 4.125 L 8.34375 4.125 C 8.863281 5.84375 9.929688 7.222656 11.546875 8.265625 C 13.160156 9.316406 15.101562 9.84375 17.375 9.84375 C 19.945312 9.84375 22.050781 9.035156 23.6875 7.421875 C 25.320312 5.804688 26.140625 3.539062 26.140625 0.625 L 26.140625 -5.3125 C 25.210938 -3.65625 23.835938 -2.273438 22.015625 -1.171875 C 20.191406 -0.078125 18.0625 0.46875 15.625 0.46875 C 13.113281 0.46875 10.832031 -0.148438 8.78125 -1.390625 C 6.738281 -2.628906 5.132812 -4.363281 3.96875 -6.59375 C 2.800781 -8.832031 2.21875 -11.378906 2.21875 -14.234375 C 2.21875 -17.117188 2.800781 -19.648438 3.96875 -21.828125 C 5.132812 -24.015625 6.738281 -25.707031 8.78125 -26.90625 C 10.832031 -28.113281 13.113281 -28.71875 15.625 -28.71875 Z M 26.140625 -14.171875 C 26.140625 -16.304688 25.707031 -18.160156 24.84375 -19.734375 C 23.988281 -21.316406 22.828125 -22.53125 21.359375 -23.375 C 19.898438 -24.21875 18.296875 -24.640625 16.546875 -24.640625 C 14.796875 -24.640625 13.195312 -24.226562 11.75 -23.40625 C 10.3125 -22.582031 9.160156 -21.378906 8.296875 -19.796875 C 7.441406 -18.210938 7.015625 -16.359375 7.015625 -14.234375 C 7.015625 -12.066406 7.441406 -10.179688 8.296875 -8.578125 C 9.160156 -6.984375 10.3125 -5.765625 11.75 -4.921875 C 13.195312 -4.078125 14.796875 -3.65625 16.546875 -3.65625 C 18.296875 -3.65625 19.898438 -4.078125 21.359375 -4.921875 C 22.828125 -5.765625 23.988281 -6.984375 24.84375 -8.578125 C 25.707031 -10.179688 26.140625 -12.046875 26.140625 -14.171875 Z M 26.140625 -14.171875 "/></g></g></g><g fill="#011838" fill-opacity="1"><g transform="translate(1078.28672, 711.670356)"><g><path d="M 29.015625 -28.25 L 29.015625 0 L 24.328125 0 L 24.328125 -4.171875 C 23.429688 -2.734375 22.1875 -1.609375 20.59375 -0.796875 C 19 0.00390625 17.238281 0.40625 15.3125 0.40625 C 13.113281 0.40625 11.132812 -0.046875 9.375 -0.953125 C 7.625 -1.859375 6.242188 -3.222656 5.234375 -5.046875 C 4.222656 -6.867188 3.71875 -9.085938 3.71875 -11.703125 L 3.71875 -28.25 L 8.34375 -28.25 L 8.34375 -12.3125 C 8.34375 -9.53125 9.046875 -7.390625 10.453125 -5.890625 C 11.867188 -4.398438 13.796875 -3.65625 16.234375 -3.65625 C 18.742188 -3.65625 20.71875 -4.425781 22.15625 -5.96875 C 23.601562 -7.519531 24.328125 -9.773438 24.328125 -12.734375 L 24.328125 -28.25 Z M 29.015625 -28.25 "/></g></g></g><g fill="#011838" fill-opacity="1"><g transform="translate(1111.27156, 711.670356)"><g><path d="M 2.21875 -14.234375 C 2.21875 -17.117188 2.800781 -19.648438 3.96875 -21.828125 C 5.132812 -24.015625 6.738281 -25.707031 8.78125 -26.90625 C 10.832031 -28.113281 13.113281 -28.71875 15.625 -28.71875 C 18.09375 -28.71875 20.238281 -28.179688 22.0625 -27.109375 C 23.882812 -26.046875 25.242188 -24.707031 26.140625 -23.09375 L 26.140625 -28.25 L 30.875 -28.25 L 30.875 0 L 26.140625 0 L 26.140625 -5.25 C 25.210938 -3.601562 23.828125 -2.238281 21.984375 -1.15625 C 20.148438 -0.0703125 18.007812 0.46875 15.5625 0.46875 C 13.050781 0.46875 10.78125 -0.148438 8.75 -1.390625 C 6.726562 -2.628906 5.132812 -4.363281 3.96875 -6.59375 C 2.800781 -8.832031 2.21875 -11.378906 2.21875 -14.234375 Z M 26.140625 -14.171875 C 26.140625 -16.304688 25.707031 -18.160156 24.84375 -19.734375 C 23.988281 -21.316406 22.828125 -22.53125 21.359375 -23.375 C 19.898438 -24.21875 18.296875 -24.640625 16.546875 -24.640625 C 14.796875 -24.640625 13.195312 -24.226562 11.75 -23.40625 C 10.3125 -22.582031 9.160156 -21.378906 8.296875 -19.796875 C 7.441406 -18.210938 7.015625 -16.359375 7.015625 -14.234375 C 7.015625 -12.066406 7.441406 -10.179688 8.296875 -8.578125 C 9.160156 -6.984375 10.3125 -5.765625 11.75 -4.921875 C 13.195312 -4.078125 14.796875 -3.65625 16.546875 -3.65625 C 18.296875 -3.65625 19.898438 -4.078125 21.359375 -4.921875 C 22.828125 -5.765625 23.988281 -6.984375 24.84375 -8.578125 C 25.707031 -10.179688 26.140625 -12.046875 26.140625 -14.171875 Z M 26.140625 -14.171875 "/></g></g></g><g fill="#011838" fill-opacity="1"><g transform="translate(1146.111825, 711.670356)"><g><path d="M 15.625 -28.71875 C 18.0625 -28.71875 20.195312 -28.179688 22.03125 -27.109375 C 23.875 -26.046875 25.242188 -24.707031 26.140625 -23.09375 L 26.140625 -28.25 L 30.875 -28.25 L 30.875 0.625 C 30.875 3.195312 30.320312 5.488281 29.21875 7.5 C 28.125 9.507812 26.550781 11.082031 24.5 12.21875 C 22.457031 13.351562 20.082031 13.921875 17.375 13.921875 C 13.65625 13.921875 10.554688 13.039062 8.078125 11.28125 C 5.609375 9.53125 4.15625 7.144531 3.71875 4.125 L 8.34375 4.125 C 8.863281 5.84375 9.929688 7.222656 11.546875 8.265625 C 13.160156 9.316406 15.101562 9.84375 17.375 9.84375 C 19.945312 9.84375 22.050781 9.035156 23.6875 7.421875 C 25.320312 5.804688 26.140625 3.539062 26.140625 0.625 L 26.140625 -5.3125 C 25.210938 -3.65625 23.835938 -2.273438 22.015625 -1.171875 C 20.191406 -0.078125 18.0625 0.46875 15.625 0.46875 C 13.113281 0.46875 10.832031 -0.148438 8.78125 -1.390625 C 6.738281 -2.628906 5.132812 -4.363281 3.96875 -6.59375 C 2.800781 -8.832031 2.21875 -11.378906 2.21875 -14.234375 C 2.21875 -17.117188 2.800781 -19.648438 3.96875 -21.828125 C 5.132812 -24.015625 6.738281 -25.707031 8.78125 -26.90625 C 10.832031 -28.113281 13.113281 -28.71875 15.625 -28.71875 Z M 26.140625 -14.171875 C 26.140625 -16.304688 25.707031 -18.160156 24.84375 -19.734375 C 23.988281 -21.316406 22.828125 -22.53125 21.359375 -23.375 C 19.898438 -24.21875 18.296875 -24.640625 16.546875 -24.640625 C 14.796875 -24.640625 13.195312 -24.226562 11.75 -23.40625 C 10.3125 -22.582031 9.160156 -21.378906 8.296875 -19.796875 C 7.441406 -18.210938 7.015625 -16.359375 7.015625 -14.234375 C 7.015625 -12.066406 7.441406 -10.179688 8.296875 -8.578125 C 9.160156 -6.984375 10.3125 -5.765625 11.75 -4.921875 C 13.195312 -4.078125 14.796875 -3.65625 16.546875 -3.65625 C 18.296875 -3.65625 19.898438 -4.078125 21.359375 -4.921875 C 22.828125 -5.765625 23.988281 -6.984375 24.84375 -8.578125 C 25.707031 -10.179688 26.140625 -12.046875 26.140625 -14.171875 Z M 26.140625 -14.171875 "/></g></g></g><g fill="#011838" fill-opacity="1"><g transform="translate(1180.95209, 711.670356)"><g><path d="M 29.75 -15.203125 C 29.75 -14.304688 29.695312 -13.363281 29.59375 -12.375 L 7.015625 -12.375 C 7.179688 -9.59375 8.128906 -7.414062 9.859375 -5.84375 C 11.597656 -4.28125 13.707031 -3.5 16.1875 -3.5 C 18.21875 -3.5 19.910156 -3.972656 21.265625 -4.921875 C 22.617188 -5.867188 23.570312 -7.132812 24.125 -8.71875 L 29.171875 -8.71875 C 28.421875 -6 26.910156 -3.785156 24.640625 -2.078125 C 22.367188 -0.378906 19.550781 0.46875 16.1875 0.46875 C 13.507812 0.46875 11.113281 -0.128906 9 -1.328125 C 6.882812 -2.535156 5.222656 -4.25 4.015625 -6.46875 C 2.816406 -8.6875 2.21875 -11.253906 2.21875 -14.171875 C 2.21875 -17.097656 2.800781 -19.660156 3.96875 -21.859375 C 5.132812 -24.054688 6.773438 -25.75 8.890625 -26.9375 C 11.003906 -28.125 13.4375 -28.71875 16.1875 -28.71875 C 18.863281 -28.71875 21.234375 -28.128906 23.296875 -26.953125 C 25.359375 -25.785156 26.945312 -24.179688 28.0625 -22.140625 C 29.1875 -20.097656 29.75 -17.785156 29.75 -15.203125 Z M 24.890625 -16.1875 C 24.890625 -17.96875 24.492188 -19.503906 23.703125 -20.796875 C 22.921875 -22.085938 21.847656 -23.066406 20.484375 -23.734375 C 19.128906 -24.410156 17.628906 -24.75 15.984375 -24.75 C 13.609375 -24.75 11.585938 -23.988281 9.921875 -22.46875 C 8.253906 -20.957031 7.300781 -18.863281 7.0625 -16.1875 Z M 24.890625 -16.1875 "/></g></g></g></svg>
