<svg xmlns="http://www.w3.org/2000/svg" xmlns:xlink="http://www.w3.org/1999/xlink" width="1920" zoomAndPan="magnify" viewBox="0 0 1440 809.999993" height="1080" preserveAspectRatio="xMidYMid meet" version="1.0"><defs><g/><clipPath id="cbca23d31e"><path d="M 125.453125 655.496094 L 1314.632812 655.496094 L 1314.632812 678.597656 L 125.453125 678.597656 Z M 125.453125 655.496094 " clip-rule="nonzero"/></clipPath><clipPath id="baa4eb2049"><path d="M 137.003906 655.496094 L 1302.996094 655.496094 C 1306.058594 655.496094 1308.996094 656.714844 1311.160156 658.878906 C 1313.328125 661.046875 1314.546875 663.984375 1314.546875 667.046875 C 1314.546875 670.113281 1313.328125 673.050781 1311.160156 675.214844 C 1308.996094 677.382812 1306.058594 678.597656 1302.996094 678.597656 L 137.003906 678.597656 C 133.941406 678.597656 131.003906 677.382812 128.839844 675.214844 C 126.671875 673.050781 125.453125 670.113281 125.453125 667.046875 C 125.453125 663.984375 126.671875 661.046875 128.839844 658.878906 C 131.003906 656.714844 133.941406 655.496094 137.003906 655.496094 Z M 137.003906 655.496094 " clip-rule="nonzero"/></clipPath></defs><g fill="#62a4ff" fill-opacity="1"><g transform="translate(125.455034, 622.208954)"><g><path d="M 20.515625 -463.90625 L 148.515625 -463.90625 C 181.640625 -463.90625 206.484375 -454.722656 223.046875 -436.359375 C 239.609375 -418.003906 248.066406 -390.828125 248.421875 -354.828125 L 249.515625 -137.71875 C 249.867188 -91.988281 241.941406 -57.601562 225.734375 -34.5625 C 209.535156 -11.519531 182.71875 0 145.28125 0 L 20.515625 0 Z M 130.15625 -82.09375 C 147.070312 -82.09375 155.53125 -90.375 155.53125 -106.9375 L 155.53125 -346.1875 C 155.53125 -356.625 154.71875 -364.453125 153.09375 -369.671875 C 151.476562 -374.890625 148.507812 -378.398438 144.1875 -380.203125 C 139.875 -382.003906 133.21875 -382.90625 124.21875 -382.90625 L 113.953125 -382.90625 L 113.953125 -82.09375 Z M 130.15625 -82.09375 "/></g></g></g><g fill="#ffffff" fill-opacity="1"><g transform="translate(391.705357, 622.208954)"><g><path d="M 20.515625 -463.90625 L 163.09375 -463.90625 C 185.78125 -463.90625 203.332031 -458.773438 215.75 -448.515625 C 228.175781 -438.253906 236.546875 -423.851562 240.859375 -405.3125 C 245.179688 -386.769531 247.34375 -363.097656 247.34375 -334.296875 C 247.34375 -308.015625 243.921875 -287.492188 237.078125 -272.734375 C 230.242188 -257.972656 218.363281 -247.710938 201.4375 -241.953125 C 215.476562 -239.066406 225.648438 -232.039062 231.953125 -220.875 C 238.253906 -209.71875 241.40625 -194.597656 241.40625 -175.515625 L 240.328125 0 L 149.59375 0 L 149.59375 -181.46875 C 149.59375 -194.425781 147.070312 -202.703125 142.03125 -206.296875 C 136.988281 -209.898438 127.8125 -211.703125 114.5 -211.703125 L 114.5 0 L 20.515625 0 Z M 137.171875 -292.171875 C 150.140625 -292.171875 156.625 -306.210938 156.625 -334.296875 C 156.625 -346.535156 156.082031 -355.710938 155 -361.828125 C 153.914062 -367.953125 151.929688 -372.1875 149.046875 -374.53125 C 146.171875 -376.875 142.035156 -378.046875 136.640625 -378.046875 L 115.03125 -378.046875 L 115.03125 -292.171875 Z M 137.171875 -292.171875 "/></g></g></g><g fill="#ffffff" fill-opacity="1"><g transform="translate(649.311296, 622.208954)"><g><path d="M 16.203125 0 L 16.203125 -463.90625 L 105.859375 -463.90625 L 105.859375 0 Z M 16.203125 0 "/></g></g></g><g fill="#ffffff" fill-opacity="1"><g transform="translate(771.90356, 622.208954)"><g><path d="M 20.515625 0 L 20.515625 -463.90625 L 116.109375 -463.90625 L 158.78125 -241.953125 L 158.78125 -463.90625 L 248.421875 -463.90625 L 248.421875 0 L 157.703125 0 L 111.25 -232.234375 L 111.25 0 Z M 20.515625 0 "/></g></g></g><g fill="#ffffff" fill-opacity="1"><g transform="translate(1040.850579, 622.208954)"><g><path d="M 116.109375 4.328125 C 82.628906 4.328125 57.695312 -7.460938 41.3125 -31.046875 C 24.925781 -54.628906 16.734375 -90.363281 16.734375 -138.25 L 16.734375 -338.078125 C 16.734375 -380.921875 26.273438 -413.320312 45.359375 -435.28125 C 64.441406 -457.25 92.882812 -468.234375 130.6875 -468.234375 C 161.289062 -468.234375 185.050781 -462.113281 201.96875 -449.875 C 218.894531 -437.632812 230.597656 -419.8125 237.078125 -396.40625 C 243.566406 -373 246.8125 -342.9375 246.8125 -306.21875 L 156.078125 -306.21875 L 156.078125 -347.796875 C 156.078125 -358.960938 154.546875 -367.601562 151.484375 -373.71875 C 148.421875 -379.84375 142.929688 -382.90625 135.015625 -382.90625 C 117.367188 -382.90625 108.546875 -371.382812 108.546875 -348.34375 L 108.546875 -123.671875 C 108.546875 -109.628906 110.347656 -99.007812 113.953125 -91.8125 C 117.554688 -84.613281 123.859375 -81.015625 132.859375 -81.015625 C 141.859375 -81.015625 148.15625 -84.613281 151.75 -91.8125 C 155.351562 -99.007812 157.15625 -109.628906 157.15625 -123.671875 L 157.15625 -190.109375 L 132.3125 -190.109375 L 132.3125 -270.03125 L 245.734375 -270.03125 L 245.734375 0 L 208.46875 0 L 192.796875 -38.890625 C 176.234375 -10.078125 150.671875 4.328125 116.109375 4.328125 Z M 116.109375 4.328125 "/></g></g></g><g clip-path="url(#cbca23d31e)"><g clip-path="url(#baa4eb2049)"><path fill="#62a4ff" d="M 125.453125 655.496094 L 1314.542969 655.496094 L 1314.542969 678.597656 L 125.453125 678.597656 Z M 125.453125 655.496094 " fill-opacity="1" fill-rule="nonzero"/></g></g></svg>